<?xml version="1.0" encoding="UTF-8" standalone="no"?>
<svg
   xmlns:dc="http://purl.org/dc/elements/1.1/"
   xmlns:cc="http://creativecommons.org/ns#"
   xmlns:rdf="http://www.w3.org/1999/02/22-rdf-syntax-ns#"
   xmlns:svg="http://www.w3.org/2000/svg"
   xmlns="http://www.w3.org/2000/svg"
   id="svg3825"
   version="1.1"
   viewBox="0 0 205.28804 171.67601"
   height="171.67601mm"
   width="205.28804mm">
  <defs
     id="defs3819" />
  <metadata
     id="metadata3822">
    <rdf:RDF>
      <cc:Work
         rdf:about="">
        <dc:format>image/svg+xml</dc:format>
        <dc:type
           rdf:resource="http://purl.org/dc/dcmitype/StillImage" />
        <dc:title></dc:title>
      </cc:Work>
    </rdf:RDF>
  </metadata>
  <g
     transform="translate(-6.2135027,-53.92394)"
     id="layer1">
    <path
       id="path54"
       style="fill:#00b0aa;fill-rule:evenodd;stroke-width:2.60126615"
       d="m 211.49761,64.273327 c -2.57636,11.201292 -2.1305,8.465759 -5.34669,10.747369 -6.19988,4.397164 -6.78516,1.993644 -11.82825,4.619063 8.60841,0.649865 10.40169,1.334928 14.02993,7.345747 -1.50817,1.061513 -1.12916,1.03133 -3.59206,-0.470932 -2.95478,8.056175 -9.99663,1.82454 -16.56411,5.074559 -2.049,1.014223 -3.90707,1.463525 -5.17308,2.24828 -1.98607,6.729207 1.70273,4.882647 1.3076,10.842927 -0.467,7.04314 0.73343,6.28542 1.4302,12.13382 0.4847,4.07252 -1.76339,4.91558 0.059,11.08714 1.44583,4.90703 2.64892,5.96786 2.52848,11.63359 h -1.01009 c -0.26644,8.98378 -0.96153,4.14125 -3.51331,9.53966 -3.82694,8.0957 -7.98617,8.16275 -12.52688,17.80908 -5.68323,12.07403 -5.12686,7.44012 -6.5544,7.45989 -1.49676,2.5565 -0.96743,2.89647 -1.45409,6.14442 -0.4965,3.31147 -3.4964,5.34119 -3.5315,8.18487 -0.0492,4.24507 1.27408,14.17976 3.15977,17.21054 2.30806,1.83545 9.8174,-0.57121 10.83398,6.07758 -2.03916,2.40302 -6.09714,2.79874 -9.12447,2.7722 -1.45822,-0.01 -3.84207,-0.48863 -5.15518,-0.99859 -3.63089,-1.41201 -1.67284,0.59874 -3.18709,-2.53655 0.6479,10.00007 9.16527,0.92712 10.68523,10.92454 -4.20132,4.44898 -12.94964,3.95415 -18.31079,1.59222 -12.67936,0.11306 -9.54644,-2.63044 -9.79646,-15.36201 1.08403,-2.11821 -0.96054,-13.89238 -1.38694,-19.27909 l -4.73979,5.94288 c -0.10717,-0.0196 -0.1986,-0.33034 -0.21826,-0.23989 -0.0196,0.0885 -0.19565,-0.21924 -0.22711,-0.24382 -2.05263,-1.64472 -9.63119,0.0885 -12.31589,0.74621 0.40604,6.78643 1.80576,-2.0604 2.01674,11.01351 2.95714,2.73268 5.40284,1.59743 3.53356,7.07567 -3.77679,1.0918 -5.14927,-0.19171 -9.41716,-0.32641 8.25438,4.44849 6.16577,9.27382 0.78063,8.98693 -11.29341,-0.60168 -39.350612,1.01059 -44.13514,2.52632 -10.65505,3.37518 -28.686766,-3.75752 -38.74092,-4.48378 -16.389276,-1.18362 -16.944907,-7.47582 -20.493814,-8.71292 -1.809705,-0.63119 -0.228093,0.93301 -2.656419,-1.70047 -2.1429256,-2.32349 -0.334273,0.0196 -2.0263824,-0.28314 l -2.4331538,-7.78473 c -1.150794,-6.70631 3.2214084,-12.32199 5.3214192,-16.75475 5.105499,5.94879 20.07267,0.53386 33.855738,5.31022 8.391401,2.90818 4.56314,18.40449 11.472907,11.64116 2.970114,-2.90739 3.764012,-6.87334 5.990466,-10.35981 5.229013,-8.18723 3.486664,-14.7552 13.224823,-23.87751 1.946255,-1.82355 3.096547,-2.54047 4.880483,-4.56322 1.776366,-2.01409 2.356723,-3.41853 4.243989,-5.34423 -2.635645,-0.84748 -0.226126,1.01392 -2.830211,-1.11048 5.266569,-4.32569 3.213346,-4.96631 6.166353,-7.43993 1.501673,-1.25765 2.343942,-1.71286 4.442095,-3.4438 3.374879,-2.78331 6.835877,-4.61336 7.658977,-6.72793 1.52409,-3.91562 6.78093,-4.95924 11.33628,-10.52832 2.48394,-3.03677 14.20031,-13.61111 15.2226,-16.1328 1.97909,-4.88235 8.93924,-8.93748 12.92053,-16.788568 0.61939,-1.22108 1.87911,-2.651179 2.75913,-4.28538 2.17966,-4.048832 0.6361,-3.669334 0.642,-4.585242 l 4.88707,-9.646036 c 2.9186,-5.914469 -1.03762,-10.685429 11.75176,-20.185565 3.25779,-2.41994 8.91526,-2.009666 13.06428,-2.566626 15.79282,-2.120764 8.70073,8.622668 23.08341,8.573214 6.73855,-0.01964 8.96294,0.745232 15.00414,1.499708 z" />
    <path
       id="path56"
       style="fill:#ffffff;fill-rule:evenodd;stroke-width:2.60126615"
       d="m 153.55906,115.5687 c -3.24589,0 -8.42918,-7.64905 -11.25468,-8.78814 -2.23835,-0.90254 -2.65747,1.70381 -2.65747,3.72921 0,1.5524 1.32333,5.09461 1.77381,6.86862 0.62038,2.44186 1.17733,6.4439 2.30344,8.44688 1.06545,1.89474 0.33624,1.56204 0.6184,3.59806 0.24481,1.76987 0.24383,3.9453 -1.05787,5.38101 -0.71475,0.78849 -1.45232,1.44759 -2.21446,2.2121 -1.58573,1.59094 -2.89913,2.48709 -4.33946,4.30268 -1.06524,1.34338 -3.65793,2.61667 -5.23225,3.41008 -1.76939,0.89172 -4.16721,1.90771 -6.36859,2.27374 -2.14299,0.3559 -4.66753,1.44868 -6.65017,2.20276 -9.6832,3.6828 -14.21279,6.3736 -20.714104,14.06611 -4.965527,5.87573 -10.393628,16.00862 -10.393628,24.38629 l 0.662647,9.6655 c 0.404077,3.61291 -0.151406,12.86587 -1.102413,15.61124 -0.540735,1.55997 -2.005834,2.50242 -3.491973,3.25316 -4.52694,2.28653 -6.639447,1.61277 -12.720954,1.61277 -6.101465,0 -11.366756,-0.25758 -15.838542,-1.8674 -3.797862,-1.36777 -7.769742,-4.86387 -7.769742,-9.93656 0,-18.3158 -0.794685,-5.1425 -1.838315,-7.0625 -1.997251,-3.67376 -4.906763,-6.2571 -4.906763,4.95442 0,5.00583 0.288261,8.20305 3.367593,12.23085 7.085595,9.26811 22.437494,9.47673 34.194661,9.48037 h 1.222652 c 7.986863,0 14.940331,-2.31877 14.965794,-2.31877 5.068365,0 1.765257,0.53779 8.431737,-0.2104 1.37485,-0.15435 2.67026,-0.29789 4.12464,-0.51812 1.89139,-0.28708 2.30078,0.30773 4.09622,0.30773 4.9668,0 10.56656,-0.004 15.09587,-1.13466 5.99548,-1.49627 4.71118,-5.32979 2.1885,-6.66452 0.37753,-0.56335 1.11903,-1.33906 1.62319,-1.96051 4.73556,-5.83749 5.12214,-12.96999 5.12214,-20.80466 l 0.75703,1.98371 c 0.23498,0.8347 0.34509,1.3719 0.55057,2.1892 0.34017,1.34957 0.73441,3.31815 0.95268,4.739 0.63806,4.162 0.68624,5.09068 2.03523,9.13637 0.49747,1.49057 2.04358,5.95822 3.10874,7.21991 l 0.30281,0.32935 c 3.06744,3.04552 14.42585,4.35341 14.42585,-0.72459 0,-2.04958 -3.27657,-3.69774 -5.17937,-4.7276 l -1.00144,-0.47388 c -1.95097,-1.06387 -1.83889,-7.59546 -1.82769,-9.76569 0.01,-1.94989 -0.42374,-3.40142 -0.12289,-5.39005 0.40997,-2.70692 -0.0688,-6.35571 0.0393,-8.14328 0.0196,-0.29888 5.48453,-9.52816 7.23799,-11.34414 3.68812,-3.81888 8.32488,-10.3135 9.01967,-15.43171 0.23203,-1.70745 0.17402,-3.8993 -0.0688,-5.51934 -0.27135,-1.79593 -0.0885,-4.46225 -0.0885,-6.44547 l 1.50147,-4.6112 c 1.01295,-3.4145 1.2317,-7.29187 2.21083,-10.22561 0.5545,-1.66114 1.08078,-3.11011 1.58494,-4.73871 0.35394,-1.1441 0.76588,-4.01068 1.27151,-4.84125 1.72771,-2.83798 0.82389,-0.71181 1.59527,-4.7283 0.30774,-1.60057 1.85188,-6.48155 2.16452,-10.46648 v -2.4627 c -0.19859,-1.91214 -0.96349,-3.24501 -2.74015,-3.24501 -1.38724,0 -3.52157,2.36479 -4.37396,3.21433 l -6.48264,7.01069 c -1.60707,1.23013 -2.1536,-0.17303 -4.62221,0.21335 -1.03015,0.16123 -2.638,0.52303 -3.49217,0.52303 z" />
  </g>
</svg>
