<svg xmlns="http://www.w3.org/2000/svg" width="673.788" height="593.885" viewBox="0 0 178.273 157.132">
    <path d="M154.014 154.804c-1.27-.767-2.646-2.037-2.646-2.434 0-.16-.08-.265-.212-.265-.396 0-1.164-2.275-1.217-3.545l-.026-1.323.714-.397c.53-.318.9-.344 1.455-.132l.741.238.186 2.063c.105 1.138.396 2.382.635 2.805.582.979 2.566 2.249 4.127 2.62 1.667.423 5.847.396 7.514-.054 1.35-.343 3.678-1.72 4.79-2.778.317-.29.714-.555.872-.555.133 0 .265-.159.265-.37 0-.212.08-.424.212-.477.105-.026.661-.74 1.243-1.535.582-.793 1.27-1.693 1.508-1.957.265-.291.476-.741.476-1.006 0-.264.186-.476.397-.476.318 0 .397.397.397 1.984 0 1.138-.106 1.985-.264 1.985a.265.265 0 00-.265.264c0 .133-.53.794-1.19 1.482-.662.661-1.191 1.323-1.191 1.455 0 .132-.318.37-.688.53-.397.132-1.164.608-1.72 1.031-1.878 1.508-2.328 1.588-8.89 1.588h-6.032zM121.814 154.566c-.635-.053-1.138-.212-1.138-.318 0-.132-.29-.317-.661-.397-.794-.211-1.984-2.143-1.984-3.228 0-1.27 1.825-3.863 4.233-6.059.794-.714 1.508-1.402 1.535-1.508.052-.132.264-.211.45-.211.211 0 .45-.238.529-.53.079-.29.264-.529.396-.529.133 0 .609-.317 1.032-.714.424-.423 1.64-1.455 2.673-2.328 1.058-.874 2.407-2.064 2.99-2.673.608-.582 1.428-1.27 1.851-1.534.397-.265.715-.635.715-.794 0-.185.529-.714 1.19-1.19.662-.477 1.191-.927 1.191-1.033 0-.105.714-.978 1.588-1.905.873-.952 1.587-1.852 1.587-2.037 0-.397 1.244-1.667 1.614-1.667.132 0 .238-.158.212-.317-.08-.424.952-2.937 1.958-4.842.158-.291.317-2.064.37-3.942.053-2.673 0-3.52-.317-3.943-.212-.317-.397-.846-.397-1.164 0-.344-.106-.82-.238-1.085-.133-.238-.397-1.005-.609-1.693-.185-.714-.423-1.27-.53-1.27-.105 0-.21-.212-.237-.45 0-.264-.238-.82-.53-1.27-.29-.423-.582-1.005-.66-1.243-.107-.265-.266-.477-.371-.477-.106 0-.344-.476-.53-1.058-.185-.582-.45-1.058-.555-1.058-.106 0-.635-.635-1.19-1.376-1.165-1.614-4.102-4.974-5.266-6.059-1.693-1.561-3.969-3.44-4.524-3.757a169.62 169.62 0 01-2.673-1.535c-3.413-2.01-7.54-2.645-9.207-1.402l-.53.397.054 2.17c.026 1.799.158 2.434.82 3.757.423.873 1.032 1.878 1.35 2.222.317.344.555.794.555.98 0 .29.714 1.27 2.381 3.227.291.344.53.714.53.82 0 .08.608.82 1.322 1.614.741.794 1.297 1.64 1.27 1.852-.212 1.138-3.175.106-3.492-1.19-.106-.37-.291-.662-.424-.662-.344 0-1.852-1.693-2.328-2.62-.185-.37-.635-.978-1.005-1.375-.344-.37-.635-.74-.635-.847 0-.132-.239-.45-.53-.767-.29-.318-.529-.794-.529-1.058 0-.265-.08-.477-.211-.477-.106 0-.344-.396-.556-.846-.212-.477-.503-1.059-.688-1.27-.503-.635-.926-2.46-.926-3.943 0-1.428.132-1.64 1.879-3.069.9-.767 2.54-1.19 4.471-1.19 1.984 0 2.857.238 6.191 1.693.847.37 1.64.688 1.773.688.344 0 2.355 1.35 3.043 2.064.344.317.767.582.979.582.185 0 .9.502 1.56 1.137.662.609 1.747 1.614 2.435 2.223.661.635 1.217 1.243 1.217 1.35 0 .132.29.396.661.581.344.186.953.82 1.323 1.376.37.556.98 1.297 1.35 1.614.37.318.846.953 1.032 1.376.185.45.714 1.19 1.164 1.693.45.503.82 1.085.82 1.27 0 .186.132.344.264.344.16 0 .265.106.265.265 0 .423 1.376 3.307 1.614 3.387.132.052.185.211.08.344-.08.132.052.423.264.661.238.212.423.582.423.794 0 .211.106.582.238.846.503.926 1.165 4.207 1.27 6.139.133 2.487-.82 6.297-2.01 8.07-.45.687-.82 1.296-.82 1.402 0 .106-.292.503-.662.9-.37.396-.662.793-.662.899 0 .53-2.592 3.519-5.609 6.456-1.852 1.825-3.519 3.44-3.704 3.572-.185.158-1.164.952-2.143 1.799-1.005.82-1.905 1.508-2.064 1.508-.132 0-.238.132-.238.291 0 .265-1.032 1.27-1.323 1.296-.08 0-.873.662-1.72 1.456-.873.793-1.666 1.455-1.772 1.455-.133 0-.212.159-.212.344 0 .159-.397.635-.873 1.005-1.852 1.508-2.672 4.683-1.535 6.086l.503.635 1.561-.027c2.884-.026 7.726-1.773 10.372-3.73.635-.477 1.27-.874 1.402-.874.238 0 1.826-1.349 2.567-2.17.211-.264.555-.475.714-.475.185 0 .556-.291.847-.662.29-.344 1.084-1.111 1.799-1.667.714-.555 2.09-1.825 3.095-2.778.98-.979 1.905-1.773 2.038-1.773.158 0 .264-.158.264-.344 0-.185.397-.767.873-1.296 1.217-1.35 2.038-2.355 2.038-2.487 0-.053.238-.344.529-.635.29-.291.529-.767.529-1.058 0-.291.132-.53.265-.53.158 0 .264-.185.264-.396 0-.239.185-.477.397-.556a.758.758 0 00.397-.635c0-.291.106-.582.264-.662.344-.211.953-1.613 1.323-2.963.16-.608.37-1.164.503-1.243.132-.08.291-.635.397-1.217.08-.583.265-1.059.397-1.059s.29-.45.37-.979c.159-1.243.82-3.836 1.085-4.26.397-.661 2.54-.079 2.54.715 0 .397-1.164 4.392-1.614 5.53-.132.344-.238.846-.238 1.137 0 .45-.159.847-.82 2.09-.635 1.191-2.09 4.313-2.09 4.525 0 .132-.08.238-.186.238-.211 0-1.164 1.535-1.058 1.693.027.053-.265.37-.661.688-.424.318-.741.741-.741.953 0 .238-.477.846-1.085 1.376-.609.529-1.244 1.296-1.455 1.693-.212.397-.9 1.085-1.561 1.561-.635.476-1.244 1.032-1.323 1.27-.08.238-.582.714-1.111 1.085-.53.37-1.482 1.137-2.09 1.72-1.006.979-2.567 2.301-3.864 3.307a40.19 40.19 0 00-1.27 1.005c-.396.318-.82.582-.926.582-.105 0-.635.344-1.164.768-.529.397-1.27.82-1.667.926-.423.08-.74.29-.74.423 0 .159-.133.265-.318.265-.159 0-.926.29-1.667.661-.767.344-1.905.82-2.54 1.032-1.217.397-5.16.661-7.038.503zM18.812 152.66c-.212-.132-.741-.396-1.138-.581l-.74-.344.476-.37c.29-.212.793-.292 1.27-.186.45.08 2.196.212 3.915.318l3.123.132 1.64-.582c2.805-1.032 5.397-2.593 6.906-4.18 2.407-2.54 3.862-4.208 3.862-4.393 0-.264 1.085-1.772 1.72-2.407.291-.292.715-.9.926-1.323.212-.45.768-1.191 1.19-1.667.45-.503.9-1.059 1.006-1.27.106-.212.953-.873 1.852-1.482l1.64-1.138 1.853-.08c2.275-.131 4.366.424 5.9 1.562l1.111.82-.026 1.482c-.027 2.037-.212 2.487-1.429 3.916-1.773 2.037-2.09 2.354-2.804 2.698-.82.424-2.223 1.72-2.779 2.593l-.423.635.423.662c.635.979 1.64 1.296 2.937.926 1.482-.423 2.778-1.032 3.757-1.746.45-.344.9-.635 1.006-.635.08 0 .503-.265.926-.582.661-.477.873-.53 1.455-.265.37.159.662.45.662.661 0 .768-3.414 2.964-5.054 3.228-.556.106-1.085.291-1.19.424-.239.423-4.181.264-5.292-.186-1.164-.476-2.223-1.587-2.223-2.301 0-.741 1.455-2.7 2.46-3.308.477-.317 1.139-.846 1.483-1.217.37-.37.793-.688 1.005-.688.185 0 .344-.158.344-.317 0-.185.397-.768.873-1.27l.9-.926.053-1.773.052-1.773-.608-.397c-1.588-1.005-5.133-.714-5.953.53-.212.344-.609.688-.9.767-.264.106-.503.397-.503.688 0 .29-.185.582-.396.661-.212.106-.397.344-.397.582 0 .212-.424.9-.926 1.535-.503.608-.926 1.243-.926 1.402 0 .159-.106.291-.265.291-.132 0-.265.159-.265.37 0 .212-.529.9-1.19 1.562-.662.688-1.19 1.296-1.19 1.402 0 .08-.662.82-1.456 1.588-.794.793-1.455 1.534-1.455 1.666 0 .133-.318.37-.715.53-.423.158-1.455.793-2.328 1.428-1.058.768-2.117 1.244-3.175 1.482-.873.185-1.746.476-1.931.635-.45.344-8.493.556-9.05.212zM74.771 152.105c-.08-.132-.397-.265-.661-.265-.609 0-2.381-1.481-2.381-2.01 0-.212-.106-.37-.212-.37-.238 0-.53-.874-1.138-3.255-.238-.953-.238-1.64 0-2.91.556-2.937.9-4.287 1.27-4.71.185-.212.344-.556.344-.715 0-.37 1.535-3.254 2.25-4.206.29-.397.29-.424 2.354-2.329 1.773-1.667 1.826-1.693 3.73-2.646.874-.423 1.773-.9 1.985-1.084.212-.16 1.058-.503 1.852-.768 1.27-.423 2.54-.979 5.371-2.407.423-.212.9-.37 1.058-.37.635 0 2.382-1.112 3.228-2.038.477-.53 1.085-1.614 1.323-2.381.767-2.382.212-6.694-1.164-9.34-.265-.53-.582-1.323-.688-1.8-.106-.476-.476-1.402-.847-2.063-.767-1.376-.608-1.693.926-1.693.688 0 .927.132 1.032.529.08.29.238.529.37.529.133 0 .239.132.239.317 0 .16.29.662.635 1.112.344.45.714 1.243.847 1.746.264 1.19.238 1.085.582 1.931.185.424.317.9.317 1.112 0 .211.132.45.265.529.132.08.264.635.264 1.19 0 .556.133 1.112.265 1.191.397.238.317 3.254-.106 4.63-.608 2.038-2.646 4.498-3.678 4.498-.238 0-.502.106-.582.265-.08.132-.529.423-1.005.635a579.6 579.6 0 00-2.355 1.058c-.82.37-1.614.688-1.746.688-.212 0-2.355.953-3.493 1.561-.211.106-.979.476-1.72.794-2.301 1.058-2.883 1.402-3.81 2.328-.502.476-1.005.873-1.11.873-.212 0-1.959 2.196-2.938 3.678-.608.873-1.005 1.826-1.005 2.275 0 .186-.159.688-.37 1.112-.212.397-.503 1.27-.688 1.931-.344 1.376-.503 5.503-.238 6.086.105.211.476.979.82 1.693.45.979.873 1.402 1.72 1.826l1.11.529 1.191-.45c.662-.265 1.217-.635 1.217-.847 0-.211.133-.37.265-.37.159 0 .265-.159.265-.37 0-.186.158-.503.37-.662.212-.159.423-.635.503-1.032.08-.397.397-1.482.714-2.434.318-.953.688-2.143.847-2.646.344-1.27.952-2.593 1.27-2.778.159-.08.264-.37.264-.635s.239-.688.53-.953c.29-.264.529-.608.529-.767 0-.397 2.513-2.804 4.048-3.836.688-.477 1.825-1.059 2.513-1.27.688-.238 1.376-.503 1.509-.609.317-.264 3.862-1.217 5.318-1.455.82-.132 1.164-.053 1.428.265.556.661-.079 1.031-2.857 1.693-2.831.661-5.556 1.931-7.382 3.466-.185.132-.45.264-.582.264-.159 0-.344.292-.45.662-.08.37-.397.847-.688 1.058-.29.185-.688.635-.873.98-.979 1.745-1.72 3.412-1.72 3.862 0 .291-.185.873-.397 1.27-.211.423-.396.953-.396 1.164 0 .238-.16.635-.37.926-.186.291-.345.715-.371.926 0 .212-.212.926-.45 1.588-1.058 2.857-2.805 3.969-6.244 3.969-1.138 0-2.143-.106-2.223-.265z"/>
    <path d="M97.102 151.893c-1.005-.45-2.09-1.825-2.09-2.672 0-.29-.132-.608-.265-.688-.185-.106-.185-.317 0-.661.133-.265.265-.794.265-1.164 0-.37.132-.741.264-.82.16-.08.397-.689.556-1.35.159-.635.397-1.164.53-1.164.105 0 .423-.424.66-.953.239-.502.82-1.296 1.27-1.72.953-.952 3.6-2.883 3.917-2.883.105 0 .979-.344 1.878-.794.926-.424 1.826-.794 1.984-.794.16 0 .715-.238 1.218-.503.502-.29 1.375-.608 1.931-.688 1.005-.185 6.085-1.772 7.09-2.249.292-.132 1.112-.37 1.853-.529 1.402-.317 2.196-.635 5.027-2.01 1.032-.503 1.984-.9 2.09-.9.556 0 4.392-3.44 4.392-3.942 0-.106.318-.794.688-1.509l.715-1.296.026-2.805c0-1.878-.106-3.095-.344-3.571-1.005-2.117-1.217-2.488-1.402-2.488-.132 0-.212-.158-.212-.37 0-.45-2.143-2.275-3.201-2.725-.45-.185-1.297-.344-1.879-.344-.846 0-1.243.185-1.958.9-.502.502-.9 1.084-.9 1.322 0 .239-.105.424-.264.424-.132 0-.264.211-.264.476s-.16.714-.37 1.005c-.45.635-1.006 3.096-1.165 5.266-.053.873-.238 1.666-.423 1.772-.556.37-1.667.212-2.09-.264-.503-.53-.61-2.302-.186-2.567.159-.08.265-.608.265-1.137 0-.53.185-1.323.397-1.747.211-.397.397-1.032.397-1.376 0-.317.132-.687.264-.767.159-.08.265-.344.265-.555 0-.794 1.534-2.62 2.672-3.202 2.857-1.402 4.366-1.429 7.144-.132 1.905.9 4.18 3.069 4.736 4.55.185.503.502 1.112.714 1.35.185.238.265.476.185.582-.105.08.027.609.291 1.138.53 1.138.424 4.021-.211 5.662-.715 1.878-1.852 3.969-2.143 3.969-.16.026-.635.502-1.085 1.058-.424.556-1.27 1.27-1.852 1.587-3.599 1.879-5.265 2.62-7.144 3.281-3.572 1.244-6.509 2.223-8.731 2.91-3.678 1.112-6.297 2.038-7.805 2.752-2.038.953-4.63 2.937-5.107 3.89-2.037 4.18-2.408 5.397-2.064 6.694.186.608.477 1.27.715 1.508.529.529 2.302.503 3.44-.027.899-.423 2.75-2.328 2.75-2.83 0-.133.504-.98 1.139-1.88.635-.899 1.217-1.825 1.323-2.09.079-.238.29-.45.423-.45.159 0 .608-.317 1.005-.687 1.006-.953 2.884-2.223 3.255-2.223.158 0 1.19-.29 2.275-.661 2.25-.74 3.44-.82 4.207-.238l.53.397-.53.317c-.291.159-1.402.45-2.487.635-1.058.185-2.276.582-2.672.873-.424.291-.847.53-1.006.53-.37 0-3.228 2.883-3.228 3.254 0 .185-.238.476-.529.661-.29.185-.53.609-.53.98 0 .37-.184.74-.396.82-.212.105-.397.264-.397.423 0 .132-.159.397-.317.582-.186.185-.741.847-1.244 1.429-.714.873-1.138 1.137-2.064 1.27-.635.079-1.217.264-1.296.396-.238.397-3.863.212-4.895-.238zM3.493 150.967c-.37-.476-.106-.714.82-.714.555 0 .74.132.74.53 0 .634-1.084.74-1.56.184zM155.072 143.638c-.29-.185-.185-.264.477-.264.529 0 .82.106.714.264-.212.344-.688.344-1.19 0zM10.345 143.347c-2.751-.264-6.376-1.11-8.255-1.905-.767-.317-1.005-.582-1.005-1.058v-.661l2.064.502c1.11.291 2.407.635 2.83.768 2.038.635 6.933 1.11 9.631.952 3.123-.185 6.88-1.27 8.52-2.487a189.34 189.34 0 002.064-1.508c.582-.423 1.058-.953 1.085-1.111 0-.186.132-.344.264-.344.159 0 .423-.318.609-.715.158-.423.45-.846.635-.952.185-.106.344-.37.344-.556 0-.185.264-.635.608-1.005.318-.37.847-1.19 1.19-1.826 1.112-2.17 4.949-5.53 6.324-5.53.186 0 .344-.106.344-.211 0-.265 2.329-1.032 4.101-1.376 2.09-.397 10.875-.609 12.965-.318 2.037.318 4.418.873 4.63 1.085.08.106.688.423 1.376.767.714.344 1.429.768 1.587.926.186.186.662.53 1.059.768.952.608 2.17 2.487 2.857 4.418.45 1.217.556 1.985.477 3.202-.133 1.799-.397 2.116-1.694 2.116-1.058 0-1.164-.29-1.27-3.042-.08-2.329-.688-3.863-2.037-5.266-.423-.45-.767-.873-.767-.978 0-.16-2.011-1.218-3.043-1.562-.291-.105-.873-.343-1.27-.502-1.852-.741-9.208-1.085-11.88-.53-3.995.794-6.482 1.615-7.7 2.567-1.11.873-3.36 3.28-3.36 3.598 0 .053-.423.715-.925 1.482-.503.767-.927 1.482-.927 1.614 0 .132-.211.45-.45.714-.82.847-2.592 3.017-2.672 3.255-.053.132-.238.238-.396.238-.186 0-.715.37-1.218.794-1.243 1.11-5.132 2.884-7.17 3.307-2.328.476-6.8.661-9.525.37zM60.246 142.289c-.98-.767-.82-1.587.37-1.905 2.487-.635 4.392 1.005 2.328 2.037-1.11.582-1.852.53-2.698-.132zM156.713 141.601c.106-.582 1.772-.82 2.09-.317.291.476-.212.767-1.297.767-.714 0-.873-.106-.793-.45zM158.565 139.193l-.609-.476.503-.45c.688-.635 1.958-.82 3.07-.45 1.745.556.925 1.826-1.165 1.826-.74.027-1.429-.159-1.8-.45zM160.999 135.304c-.291-.212-.37-.397-.159-.397.159 0 .318-.238.318-.529 0-.291.132-.53.264-.53.16 0 .265-.237.265-.528 0-.291.238-1.112.556-1.8 1.137-2.592 1.375-3.122 1.72-3.783.185-.37.476-1.323.608-2.117.317-1.746.82-3.651 1.085-4.233.105-.212.29-1.482.397-2.778.105-1.297.317-2.514.45-2.672.37-.477-.16-8.679-.61-9.208-.105-.159-.29-.794-.396-1.402-.106-.609-.291-1.19-.397-1.27-.132-.08-.238-.397-.238-.741 0-.767-1.455-3.678-2.276-4.577-.343-.37-.635-.847-.635-1.032 0-.556-2.301-2.011-2.883-1.826-.503.159-.583.53-.239 1.085.318.476.794 3.28.926 5.292l.106 1.852-.688.317c-.37.185-1.428.318-2.354.318h-1.667l-2.143-1.905c-1.191-1.032-2.17-2.011-2.17-2.17 0-.159-.582-.9-1.323-1.614-.714-.74-1.323-1.429-1.323-1.587 0-.344-3.307-3.572-4.498-4.366-.502-.37-1.137-.847-1.402-1.085-.556-.503-.82-.635-5.53-2.725-.529-.238-1.138-.423-1.35-.423-.237 0-.475-.106-.555-.238-.106-.133-.661-.318-1.296-.424-2.064-.317-4.525-1.005-4.869-1.323-.264-.29-.264-.397.053-.661.715-.582 3.89-.053 7.54 1.27.795.29 1.959.661 2.567.82.609.159 1.297.476 1.508.688.212.212.53.397.688.397.186 0 .635.211 1.006.503.397.264 1.005.582 1.376.687.926.291 2.619 1.509 2.778 2.011.08.238.476.582.873.741.397.185 1.032.688 1.376 1.138.37.476 1.084 1.243 1.587 1.773.503.502 1.111 1.19 1.323 1.508.238.344.926 1.137 1.535 1.799.608.661 1.111 1.27 1.111 1.376 0 .423 2.275 2.222 2.831 2.222.37 0 .476-1.111.159-1.429-.238-.238-.847-4.074-.873-5.397 0-.635.211-1.111.767-1.667 1.058-1.058 2.91-1.085 4.418-.08 2.223 1.509 4.34 3.758 4.34 4.604 0 .16.105.265.211.265.133 0 .45.503.741 1.138.265.608.556 1.164.662 1.243.158.132.846 2.514 1.296 4.498.106.503.265 1.111.37 1.323.715 1.693.53 9.948-.264 12.674-.132.37-.238.82-.238.952-.291 1.958-.503 2.99-.768 3.44-.185.29-.344.9-.37 1.323-.026.45-.185.846-.317.873-.16.053-.265.264-.265.476 0 .238-.132.661-.318.979-.45.794-1.005 2.355-1.005 2.804 0 .212-.291.768-.661 1.244-.37.476-.609 1.032-.53 1.217.212.53-1.323 2.064-2.063 2.064-.344 0-.847-.185-1.138-.397zM9.895 134.087c-.9-.265-1.11-.767-.529-1.217.159-.159 1.535-.344 3.043-.423 2.778-.16 3.466-.37 6.27-1.826 1.8-.953 1.932-1.032 3.255-2.434 1.561-1.614 1.614-1.694 1.826-1.8.132-.026.423-.502.688-1.005.767-1.482 2.698-4.313 3.518-5.106 1.403-1.376 1.588-1.43 7.647-2.434 1.323-.239 2.805-.477 3.307-.556 1.508-.212 5.768-1.19 8.731-1.958 1.482-.397 3.916-2.037 4.869-3.28.555-.742.74-1.35.873-2.753l.132-1.772-.979-1.323c-1.032-1.376-1.772-2.223-2.62-2.99-.925-.82-4.973-4.683-5.555-5.265-.318-.344-.794-1.058-1.085-1.588-.291-.555-.688-1.164-.847-1.349-.185-.185-.344-.74-.344-1.244 0-.661.133-.9.609-1.031 1.508-.397 2.143.026 2.407 1.693.212 1.35 1.72 3.043 7.673 8.599 1.085 1.032 1.985 1.984 2.011 2.17 0 .158.08.343.185.396.133.053.477.582.82 1.19.662 1.27.794 3.282.212 3.758-.211.185-.45.714-.529 1.217a2.562 2.562 0 01-.9 1.429c-.396.317-1.058.9-1.508 1.323-1.058 1.058-4.497 2.381-8.493 3.307-2.143.503-7.17 1.217-8.625 1.217-.53 0-1.032.106-1.111.238-.08.133-.53.291-1.006.37-2.064.318-2.91.689-3.81 1.668-.502.582-1.085 1.322-1.27 1.693-.952 1.826-1.27 2.275-2.328 3.519-3.096 3.678-4.921 5-8.546 6.297-1.297.45-3.149.926-4.101 1.058-.953.133-2.011.291-2.381.344-.37.08-1.059 0-1.509-.132zM2.143 130.012v-.926l1.667-.026c3.704-.027 7.7-1.905 9.366-4.419 1.403-2.17 1.64-2.566 1.64-2.963.027-.212.186-.688.371-1.058.45-.82.556-3.334.185-3.572-.132-.08-.264-.503-.264-.9 0-.423-.185-.9-.397-1.085-.212-.185-.397-.476-.397-.661 0-.185-.185-.476-.397-.662-.212-.185-.317-.423-.264-.555.079-.106-.053-.45-.318-.741s-.952-1.138-1.535-1.852c-.582-.715-1.217-1.323-1.375-1.323-.186-.027-.344-.185-.344-.37 0-.186-.582-.927-1.297-1.614-.74-.715-1.455-1.667-1.64-2.117-.185-.45-.503-1.032-.715-1.27-.211-.238-.29-.582-.185-.74.106-.16.053-.45-.132-.662-.212-.239-.212-.397 0-.53.159-.105.212-.396.132-.661-.08-.265 0-.582.185-.714.186-.106.53-.556.741-1.006.291-.582 1.006-1.085 2.514-1.825l2.09-1.059h2.01c1.086 0 2.409.133 2.911.344.503.185 1.164.424 1.455.556 1.826.688 3.52 1.481 3.97 1.852.29.264 1.19.873 2.01 1.402.794.53 2.249 1.72 3.228 2.62 1.455 1.375 1.693 1.746 1.482 2.143-.133.238-.424.45-.635.45-.582 0-1.72-.583-1.72-.9 0-.344-1.297-1.482-1.694-1.482-.158 0-.74-.476-1.296-1.032-.53-.555-1.323-1.164-1.72-1.349a25.004 25.004 0 01-1.508-.9c-.423-.317-1.27-.767-1.852-1.058a50.075 50.075 0 01-1.535-.74c-.846-.424-3.995-.583-5-.239-.53.185-1.508.847-2.17 1.508l-1.217 1.164v1.323c0 .715.106 1.376.265 1.456.132.079.423.555.661 1.031.212.45 1.244 1.667 2.25 2.7 1.005 1.005 1.851 1.904 1.851 2.037 0 .185.926 1.296 1.879 2.275.582.608 2.09 3.836 2.09 4.498 0 .29.132.555.265.555.396 0 .317 2.329-.106 3.705a21.99 21.99 0 01-.926 2.302c-.318.608-.556 1.243-.556 1.375 0 .16-.688.98-1.535 1.852-1.534 1.561-4.445 3.466-5.318 3.466-.238 0-.582.133-.74.292-.265.264-4.419 1.031-5.689 1.031h-.74z"/>
    <path d="M103.69 130.462c-.926-.555-.926-.926-.08-1.323.874-.397 1.588-.397 2.7 0 1.084.397 1.11.873.079 1.403-.979.502-1.8.502-2.699-.08zM110.12 127.79c-.212-.132-.291-.423-.212-.662.185-.502 1.535-.582 2.355-.132l.582.318-.503.344c-.556.423-1.667.476-2.222.132zM114.856 124.324c0-.132.238-.265.555-.265.291 0 .45.133.37.265-.079.159-.343.264-.555.264-.212 0-.37-.105-.37-.264zM75.433 123.795c-1.27-.212-3.678-1.059-4.287-1.482a9.27 9.27 0 00-1.137-.635c-.9-.423-4.366-3.784-4.366-4.233 0-.265-.529-1.323-.794-1.588-.37-.37-1.031-1.799-.9-1.931.107-.08-.079-.477-.396-.873-.318-.397-.556-1.085-.556-1.561 0-.477-.185-1.006-.397-1.191-.211-.185-.396-.635-.396-1.032s-.106-.82-.239-.952c-.158-.16-.45-.98-.687-1.853-.212-.873-.53-1.614-.662-1.666-.159-.053-.265-.344-.265-.635 0-.688-.555-2.646-.846-2.99-.106-.133-.212-.424-.212-.662 0-.211-.476-1.35-1.058-2.487-.582-1.164-1.059-2.249-1.059-2.381 0-.159-.846-1.27-1.852-2.46-1.217-1.456-2.063-2.197-2.407-2.197-.318 0-.847-.238-1.217-.529-.37-.29-.874-.529-1.112-.529-.264 0-.555-.106-.714-.265-.476-.476-4.471-1.402-7.117-1.64-1.456-.132-3.281-.37-4.022-.53-.979-.21-4.34-.237-11.033-.131-7.726.132-9.657.079-9.763-.186-.318-.846.317-1.005 5.08-1.428l4.789-.424 6.297.318c3.44.185 6.932.45 7.726.582.793.132 2.302.397 3.307.555 1.032.186 1.984.397 2.117.503.158.106 1.031.344 1.984.503.952.185 2.302.635 2.99.979.714.344 1.455.635 1.667.635.211 0 .37.106.37.211 0 .133.476.477 1.058.82.556.318 1.43 1.006 1.905 1.535.477.53 1.085 1.164 1.35 1.429.238.291.45.688.45.9 0 .211.105.396.211.396.291 0 1.138 1.482.926 1.694-.08.08.027.159.238.159.265 0 .45.344.556 1.084.08.582.344 1.297.582 1.561.238.265.37.635.265.794-.106.159-.027.45.185.609.344.29 1.085 2.328 1.799 4.947.185.662.423 1.403.556 1.64.132.265.238.662.238.9 0 .397.529 1.747 1.085 2.805.132.265.238.714.238.979 0 .291.132.608.264.688.159.08.265.45.265.794 0 .344.132.714.264.793.16.08.265.344.265.556 0 .423 2.037 3.413 3.228 4.736.952 1.085 3.096 2.143 5.556 2.778 1.72.45 3.466.212 6.377-.873 1.058-.397 2.83-1.931 2.83-2.46 0-.186.239-.424.53-.503.29-.08.53-.344.53-.53 0-.529 1.004-1.005 1.745-.82.847.212.82 1.112-.026 1.905-.37.344-.662.715-.662.847 0 .317-1.243 1.402-2.513 2.196-2.91 1.852-5.636 2.408-9.128 1.826zM100.78 123.371c-.424-.211-.741-.45-.741-.502 0-.344 1.402-.794 2.91-.953 3.043-.344 4.472-.82 5.662-1.852l1.085-.979v-1.667c-.026-1.243-.185-2.037-.661-3.016-.37-.714-.741-1.376-.82-1.455-.08-.08-.37-.609-.635-1.19-.53-1.165-2.117-3.652-2.831-4.472-.265-.291-.477-.662-.477-.847 0-.185-.344-.688-.793-1.111-.424-.45-.794-.847-.794-.926 0-.106-1.482-1.8-2.117-2.434-.159-.133-.661-.662-1.138-1.165a28.7 28.7 0 00-1.349-1.323 31.383 31.383 0 01-1.138-1.005c-.344-.344-.688-.609-.74-.609-.053 0-.424-.29-.82-.661-.398-.37-.953-.661-1.27-.661-.318 0-.794-.186-1.059-.397-.344-.265-1.138-.397-2.196-.397-3.096 0-4.815 1.614-4.842 4.498 0 1.508-.344 1.852-1.746 1.852-1.561 0-1.667-.397-.847-3.307.37-1.297 1.905-3.255 2.831-3.625.37-.159.926-.397 1.217-.556.291-.159 1.667-.344 3.043-.397l2.514-.106 2.354 1.112c1.508.714 2.831 1.587 3.678 2.407.74.715 1.402 1.297 1.508 1.297.238 0 4.34 4.445 4.472 4.842.052.185.29.502.529.74.767.794 1.35 1.562 1.35 1.826 0 .159.131.265.29.265.132 0 .397.37.53.793.158.45.396.794.502.794.132 0 .291.212.37.476.106.265.37.715.635 1.006.239.264.583.794.741 1.164.9 2.01 1.561 3.36 1.8 3.678.423.555.952 2.196.952 3.016 0 .873-.37 1.588-1.561 3.016-.794.98-4.154 2.487-6.085 2.752-.953.132-2.17.291-2.673.344-.529.08-1.217-.027-1.64-.265zM156.528 116.016c-.635-.45-.37-1.138.529-1.376.926-.238 2.513.106 2.698.582.37.953-2.17 1.588-3.227.794z"/>
    <path d="M76.147 114.217c-.344-.265-.476-1.138-.688-3.916a178.025 178.025 0 00-.688-6.615c-1.164-8.572-1.137-9.207.45-11.35 1.35-1.8 1.693-2.117 3.28-3.228 1.403-.98 3.864-1.72 6.854-2.117 2.01-.264 3.783-.132 6.482.476.952.212 2.249.477 2.91.582 1.403.265 1.588.318 4.498 1.614 3.387 1.509 4.022 1.826 4.895 2.382 1.535.979 2.117 1.323 2.593 1.481.714.265.53.847-.37 1.032-.662.159-1.244-.026-2.858-.82-1.111-.556-2.117-1.164-2.222-1.35-.106-.185-.424-.343-.662-.343-.238 0-.847-.238-1.323-.53-.476-.29-1.085-.529-1.376-.529-.264 0-.9-.238-1.402-.529-.503-.29-1.614-.714-2.46-.952-.847-.212-1.667-.477-1.8-.609-.264-.212-2.91-.53-5.16-.661-2.116-.106-6.243 1.243-7.17 2.354-.185.212-.476.397-.66.397-.504 0-1.853 2.117-2.223 3.493-.212.688-.291 1.746-.186 2.381.344 2.62.741 6.27.794 7.911.053.98.185 1.932.291 2.09.318.503.609 6.668.344 7.223-.264.53-1.481.609-2.143.133zM29.924 113.793c-.211-.132-1.296-.396-2.38-.582-1.086-.185-2.144-.423-2.382-.555-1.032-.556-5.477-2.62-5.636-2.62-.317 0-5.715-3.704-6.482-4.471-.45-.423-1.005-.82-1.244-.873l-.423-.08.423-.582c.239-.344.609-.608.847-.608.662 0 2.778 1.296 3.678 2.249.45.476 1.508 1.243 2.381 1.72.847.476 2.17 1.27 2.937 1.746.74.502 1.561.9 1.773.9.211 0 .9.264 1.534.555 1.138.582 1.482.714 2.99 1.27 1.402.503 4.471.847 5.794.661 1.588-.211 3.916-1.217 4.869-2.09.397-.37.793-.661.9-.661.079 0 .37-.477.634-1.059.265-.582.556-1.058.688-1.058.318 0 .265-2.328-.053-2.514-.132-.079-.264-.423-.264-.74 0-.318-.53-1.191-1.19-1.958-.662-.741-1.192-1.535-1.192-1.773s-.132-.423-.317-.423c-.159 0-.53-.186-.794-.45a7.641 7.641 0 00-.979-.714c-.29-.16-1.19-.741-1.984-1.297-.82-.556-2.514-1.323-3.784-1.746-1.878-.582-2.328-.82-2.328-1.244 0-1.164 3.784-.529 6.006 1.006.37.264.9.476 1.138.476.476 0 4.207 2.725 5 3.651.16.185.503.556.794.794 1.006.952 2.54 3.545 2.54 4.392 0 .318.132.714.291.873.318.318.185.873-.635 2.725-.37.874-2.064 2.646-2.487 2.646-.185 0-.344.106-.344.212 0 .29-1.508 1.164-3.043 1.72-1.455.529-6.614.9-7.276.502zM85.487 113.661c-1.984-1.005.397-3.096 2.566-2.275 1.112.423 1.905 1.825 1.032 1.825-.211 0-.423.186-.529.397-.185.503-2.117.53-3.07.053zM157.268 112.418c-.74-.291-.767-.688-.105-1.059.714-.37 1.428-.344 2.037.106.9.688-.715 1.455-1.932.953zM156.66 108.978c0-.132.423-.265.926-.265.503 0 .926.133.926.265 0 .159-.423.265-.926.265-.503 0-.926-.106-.926-.265z"/>
    <path d="M85.064 108.422c-.08-.158.026-.476.238-.688.344-.37.529-.37 1.217-.079.45.185.82.423.82.53 0 .528-1.958.74-2.275.237zM174.572 98.765c-.08-.08-.635-.265-1.217-.397-.582-.132-1.587-.582-2.222-1.032-.662-.423-1.297-.793-1.43-.793-.132 0-.714-.662-1.27-1.456-.528-.793-1.084-1.455-1.216-1.455-.106 0-.582-.74-1.032-1.64-.476-.9-1.376-2.355-2.011-3.175-.635-.847-1.164-1.64-1.164-1.747 0-.105-.238-.317-.503-.45a66.597 66.597 0 01-2.434-1.56c-2.62-1.747-4.075-2.276-6.297-2.276-2.884 0-3.36.98-1.826 3.704.106.212.318.662.476 1.006.133.317.37.582.503.582.45 0 .635 1.111.265 1.35-1.297.82-2.805-.212-3.89-2.726-1.005-2.275-1.031-2.381-.635-3.228.635-1.402 1.932-2.064 4.472-2.222 1.296-.08 2.46-.027 2.804.132.318.159 1.112.423 1.773.608 1.588.424 3.36 1.244 4.498 2.09 1.773 1.297 3.043 2.54 2.963 2.858-.053.185.08.344.291.344.53 0 1.403 1.032 2.196 2.62.106.211.397.582.662.846.238.238.661.9.926 1.482 1.217 2.54 3.995 4.842 5.9 4.842.953 0 1.085.158.9 1.137-.106.53-.291.715-.715.715-.344 0-.661-.08-.767-.159zM65.114 95.325c-.661-.29-1.376-1.005-2.381-2.407-.794-1.111-1.667-2.196-1.905-2.434-.265-.212-.477-.503-.477-.635 0-.212-.423-.794-1.005-1.323-.185-.186-.873-.82-1.535-1.456-.661-.635-1.587-1.322-2.09-1.534-.476-.185-.952-.476-1.032-.609-.079-.105-.9-.476-1.799-.82-.926-.317-1.905-.688-2.196-.82-.661-.318-4.1-.953-6.879-1.323-1.164-.132-4.233-.212-6.8-.185-3.466.053-4.762 0-5-.238-.265-.265-.239-.424.185-.715.74-.555 3.095-.74 7.91-.608 4.525.106 7.303.45 9.658 1.243.794.265 1.985.609 2.646.794 1.19.291 2.037.609 3.043 1.138.29.159 1.084.555 1.772.9 1.588.793 2.858 1.878 4.922 4.18 2.01 2.222 1.931 2.116 2.513 3.386.265.53.582.98.715.98.158 0 .264.158.264.37 0 .185.265.423.609.529.45.132.767-.053 1.455-.82.45-.53.847-1.164.847-1.429 0-.265.211-.635.476-.82.238-.185.661-.794.9-1.323.264-.556.581-1.006.74-1.006.133 0 .265-.185.265-.37 0-.212.503-.873 1.138-1.455 3.307-3.096 4.683-3.81 8.281-4.26 1.455-.185 3.254-.265 3.969-.185.714.106 1.905.238 2.62.317 2.354.291 4.1.926 4.1 1.482 0 .794-.714.9-2.62.423-2.566-.661-5.555-1.032-6.773-.846-1.614.264-3.624.952-4.339 1.481-.344.291-.767.503-.926.503-.37 0-2.275 1.852-2.275 2.223 0 .079-.344.502-.767.979-.424.45-.98 1.27-1.27 1.799-.583 1.164-2.223 3.44-2.91 4.048-.583.529-2.276 1.27-2.779 1.243-.185-.026-.767-.185-1.27-.397z"/>
    <path d="M65.246 83.79c-.423-.16-1.56-.768-2.513-1.35-3.228-1.984-4.578-2.566-6.112-2.566-.53 0-1.297-.106-1.72-.265-.423-.132-2.46-.344-4.55-.476-3.017-.185-3.864-.318-4.234-.661l-.45-.477.397-.264c.503-.318 6.906-.16 9.393.264 1.852.291 5.08 1.27 5.556 1.667.132.106.503.212.82.212.318 0 .926.29 1.35.635 2.513 2.116 3.598 2.408 4.947 1.402.45-.344 1.19-.794 1.614-1.005.45-.238 1.032-.53 1.323-.688 2.276-1.244 3.969-1.455 3.969-.476 0 .343-.265.608-.794.767a9.387 9.387 0 00-1.852 1.005c-1.561 1.059-4.18 2.25-5.345 2.408-.555.08-1.349.026-1.799-.132zM136.551 83.022c-10.054-1.852-15.319-1.984-24.077-.529-2.063.344-6.376.344-7.858 0-2.513-.582-5.794-1.667-6.403-2.143-.344-.265-.793-.476-.979-.476-.45 0-4.074-3.466-4.074-3.89 0-.37.82-.873 1.455-.873.423 0 2.514 1.879 2.514 2.302.026.503 3.307 2.302 5.08 2.778 4.074 1.138 6.376 1.138 15.028-.08 1.138-.158 4.048-.21 6.747-.131 4.445.132 5.953.29 9.26.952.741.159 2.54.45 4.022.688 2.275.344 2.83.344 3.44.053l.74-.344.08-1.8c.053-1.005-.027-1.957-.186-2.116-.132-.185-.317-.847-.423-1.508l-.185-1.19.714-.662.715-.662 1.667.027c.926 0 2.01.159 2.46.344.424.185 1.482.476 2.329.688.873.185 2.037.476 2.619.661 3.148.9 7.223.98 8.414.133.317-.212.74-.397.979-.397.45 0 1.958-1.376 3.598-3.255 1.138-1.323 1.931-1.56 2.857-.846l.477.37-1.217 1.508c-1.456 1.773-3.387 3.175-5.53 4.048l-1.508.609-4.101-.106c-2.7-.053-4.207-.212-4.419-.423-.185-.185-.556-.318-.847-.318-.317 0-1.746-.423-3.201-.926-1.693-.582-2.699-.794-2.805-.635-.211.37.027 2.672.318 3.016.582.609.026 4.101-.609 4.101-.132 0-.211.16-.211.344 0 .768-4.207 1.191-6.88.688zM17.674 81.594c-.74-.503-.979-.874-.979-1.43 0-1.005 1.561-1.878 3.413-1.878 1.112 0 1.482.133 2.25.794l.899.82-.37.741c-.874 1.746-3.36 2.196-5.213.953z"/>
    <path d="M80.54 78.445c-4.816-2.381-6.906-3.334-7.303-3.334-.238 0-.45-.106-.503-.211-.08-.212-1.402-.53-5.636-1.323-.608-.133-1.217-.291-1.375-.397-.45-.291-9.499-.238-11.06.053-.714.132-2.567.502-4.101.794-2.831.582-4.313.555-4.075-.106.159-.37 1.932-1.032 3.89-1.456.608-.132 1.878-.423 2.83-.635 1.985-.476 11.775-.608 12.04-.158.079.132.317.185.528.106.37-.16 2.831.264 4.101.661.37.132 1.376.423 2.25.688.873.265 1.72.582 1.852.688.158.106.74.29 1.322.397.583.106 2.17.767 3.546 1.455 1.35.714 2.62 1.296 2.804 1.296.186 0 .635.239 1.006.556.529.397 1.005.503 1.825.45l1.138-.08.08-.661c.079-.662-.344-1.217-1.773-2.381-.344-.291-.741-.53-.873-.53-.106 0-.794-.396-1.482-.846a22.86 22.86 0 00-2.302-1.376c-.582-.265-1.243-.582-1.455-.714-.9-.503-4.71-2.355-4.842-2.355-.106 0-.82-.291-1.614-.662-.794-.37-1.56-.661-1.72-.661-.132 0-.29-.08-.344-.212-.079-.185-2.063-.873-5.45-1.905-1.429-.423-2.355-.529-3.572-.45-3.492.265-8.334 1.667-10.98 3.149-.476.265-1.032.476-1.244.476-.317 0-3.863 1.694-6.879 3.255-.29.158-.846.45-1.243.635-.397.211-.794.502-.9.635-.08.158-.688.502-1.323.767-.635.291-2.037 1.085-3.122 1.8-1.058.713-2.302 1.428-2.752 1.613-.926.397-2.222.291-2.354-.159-.106-.264 3.598-2.99 4.048-2.99.211 0 2.804-1.613 3.016-1.852.212-.264 10.292-5.185 12.144-5.926.953-.37 1.985-.688 2.329-.688.344 0 .608-.106.608-.265 0-.132.185-.264.397-.264.212 0 1.085-.212 1.905-.503.847-.265 2.25-.661 3.122-.847 2.037-.476 6.853-.502 7.33-.026.158.159.581.317.925.317.344 0 .609.106.609.238 0 .133.423.318.952.424.53.08 1.164.264 1.403.397.238.132 1.084.423 1.878.661.794.238 1.64.609 1.852.794.212.185.794.423 1.27.53.45.078.847.264.847.343 0 .106.555.397 1.27.661 1.693.688 2.83 1.218 4.55 2.223.794.476 1.588.873 1.747.873.344 0 4.127 2.46 5.106 3.28 1.35 1.192 2.064 1.985 2.064 2.382 0 .873-1.323 1.932-2.778 2.25-2.302.475-3.043.37-5.53-.874zM10.927 79.027c-.476-.476-.37-1.217.186-1.534 1.137-.583 2.936-.08 2.936.846 0 .82-2.46 1.35-3.122.688zM11.933 75.455C9.208 74.45 8.44 73.603 8.44 71.672c0-1.244.265-2.011.926-2.699.185-.185.741-.9 1.19-1.588.477-.714.98-1.27 1.086-1.27.132 0 .873-.661 1.64-1.455.794-.793 1.561-1.455 1.693-1.455.16 0 .847-.608 1.561-1.323.715-.74 1.403-1.323 1.535-1.323.159 0 .82-.582 1.508-1.27.662-.714 1.429-1.402 1.694-1.534.661-.37 6.985-6.641 7.831-7.78.37-.502.953-1.19 1.297-1.534.344-.317.555-.688.476-.82-.08-.106.106-.45.423-.714 1.059-.953 3.07-6.086 3.281-8.414.132-1.19-.344-4.048-.926-5.715-.132-.37-.45-1.376-.688-2.249-.423-1.402-.979-2.593-3.148-6.562-.291-.555-.874-1.402-1.297-1.852a21.279 21.279 0 01-1.376-1.772c-.317-.503-1.27-1.614-2.09-2.488-.82-.846-1.482-1.613-1.482-1.72 0-.105-.317-.37-.688-.555-.37-.212-.926-.714-1.217-1.111-.264-.397-.688-.741-.9-.741-.21 0-.846-.476-1.401-1.032-.556-.582-1.562-1.296-2.197-1.587-.661-.291-1.349-.715-1.534-.953-.185-.212-.503-.397-.714-.397-.186 0-.98-.317-1.747-.714L11.8 8.33H9.366l-2.434-.026-.53.582c-.422.45-.555.926-.555 2.09 0 1.561.82 4.392 1.482 5.16.212.211.37.555.37.714 0 .185.106.318.212.318.132 0 .37.423.582.926.212.502.45.926.582.926.106 0 .212.132.212.264 0 .159.212.476.476.741.873.926 1.64 1.905 1.64 2.117 0 .158.662.979 2.435 2.91.714.794.45 1.376-.662 1.376-.661 0-1.137-.238-1.852-.926-.555-.53-.979-1.111-.979-1.323a.407.407 0 00-.397-.397c-.211 0-.397-.08-.397-.185 0-.132-.37-.582-.793-1.058-.45-.477-.794-.953-.794-1.112 0-.158-.503-.9-1.138-1.667-.608-.767-1.27-1.693-1.455-2.063a9.379 9.379 0 00-.556-1.059c-.37-.608-1.481-2.99-1.481-3.148 0-.08-.159-.556-.37-1.006-.424-1.031-.212-2.54.476-3.227.264-.265.529-.662.635-.874.185-.502 2.778-1.534 4.312-1.72 1.112-.132 5.398.662 5.398 1.006 0 .106.529.265 1.164.344.609.106 1.402.423 1.693.688.318.29.662.53.82.53.133 0 1.059.528 2.038 1.19.952.661 1.852 1.19 1.984 1.19.106 0 .476.344.82.741.344.423 1.059 1.032 1.614 1.35.53.343.98.687.98.82 0 .132.37.582.82 1.005 1.243 1.164 1.243 1.164 2.222 2.276.503.582.926 1.164.926 1.27 0 .105.185.211.397.211.212 0 .397.133.397.291 0 .159.37.741.794 1.297.45.555.793 1.058.793 1.137 0 .08.291.477.662.874.37.396.661.873.661 1.031 0 .186.185.424.424.503.211.08.317.265.238.423-.08.16.053.609.317 1.006 1.217 1.826 1.932 3.307 1.932 3.916 0 .211.105.37.238.37.211 0 .661 2.09.555 2.54-.026.106.106.265.265.37.344.212.847 2.937.847 4.63 0 1.297-.477 3.784-.794 4.181-.159.185-.344.741-.45 1.244-.185.9-.767 2.143-1.323 2.83-.635.795-.82 1.06-1.138 1.694-.45.873-3.095 4.101-4.603 5.636-3.07 3.122-4.657 4.656-4.842 4.656-.08 0-.715.556-1.376 1.217-.688.662-1.561 1.376-1.958 1.588-.397.185-.979.714-1.296 1.164-.318.45-.9.98-1.27 1.164-.715.37-5.345 4.763-5.345 5.054 0 .264-.74.926-1.005.926-.609 0-.768 3.995-.186 4.577.926.926 4.445.767 6.906-.317.688-.318 1.35-.556 1.508-.556.159 0 .476-.185.715-.397.264-.238 1.058-.635 1.772-.9.741-.264 1.561-.687 1.826-.925a85.639 85.639 0 012.09-1.64c1.905-1.43 3.122-2.435 5.08-4.26.82-.768 1.693-1.456 1.932-1.535.238-.08.608-.45.793-.794.186-.37.503-.661.715-.661.185 0 .344-.133.344-.265 0-.37 1.217-1.588 1.587-1.588.132 0 .265-.132.265-.29 0-.16.158-.45.344-.636.158-.211.529-.661.767-.979.265-.343.9-1.137 1.429-1.799.529-.661 1.137-1.534 1.35-1.984.184-.423.608-1.217.925-1.72 1.006-1.72 1.535-2.778 1.535-3.122 0-.212.158-.688.37-1.058.635-1.244 1.19-3.043 1.932-6.139.238-.952.529-1.878.688-2.037.29-.397 1.349-.45 2.01-.08l.477.239-.212 1.27c-.106.688-.53 2.275-.9 3.519a100.754 100.754 0 00-.846 2.778c-.212.794-1.72 3.836-1.985 3.995-.106.08-.158.265-.08.397.107.132-.026.318-.237.397-.238.08-.424.45-.424.82 0 .397-.37 1.032-.926 1.588-.502.502-.926.979-.926 1.058 0 .265-2.143 3.254-2.354 3.254-.133 0-.503.424-.847.926-.344.503-.794.926-.953.926-.185 0-.344.133-.344.265 0 .159-.45.688-.978 1.19a56.911 56.911 0 00-1.535 1.43c-.291.264-1.482 1.296-2.646 2.301-1.164.98-2.222 1.958-2.328 2.143-.106.186-.318.344-.476.344-.133 0-.397.106-.583.265-2.804 2.302-3.175 2.54-6.932 4.445-1.746.873-4.074 1.64-5.053 1.64-.318 0-.688.133-.767.265-.16.264-4.18.344-4.895.08zM120.2 74.82c-1.958-.344-2.566-.688-2.143-1.217.291-.317.635-.37 1.826-.211 2.302.317 6.085.29 7.593-.053 2.673-.635 5.662-2.17 7.118-3.705.608-.635 1.217-1.137 1.375-1.137.186 0 .318-.159.318-.37 0-.212.185-.424.397-.53.211-.08.397-.317.397-.529 0-.212.37-.609.793-.873.45-.238.794-.662.794-.926 0-.265.185-.556.397-.635.212-.106.397-.265.397-.397 0-.159.132-.397.264-.582.9-1.058 2.117-2.831 2.117-3.07 0-.158.106-.29.212-.29.132 0 .423-.397.661-.9.212-.503.873-1.243 1.429-1.667.556-.397 1.217-1.005 1.482-1.323.264-.344.688-.608.952-.608.238 0 .582-.133.741-.291.423-.424 3.916-.662 4.154-.265.106.159.45.291.767.291.741 0 2.54.926 3.228 1.667.318.318.715.979.9 1.455l.37.873-.9 1.72c-.476.98-1.031 1.8-1.216 1.879-.186.08-.344.264-.344.45 0 .158-.424.661-.953 1.084-.53.45-1.111.926-1.27 1.059-.159.158-.767.635-1.35 1.058-1.587 1.19-1.72 1.35-1.72 2.222 0 .635.186.9.795 1.218 1.587.82 3.81.238 6.852-1.826 1.879-1.297 3.784-1.323 3.308-.053-.08.238-.318.423-.53.423-.211 0-.37.106-.37.238 0 .133-.212.318-.476.397a3.93 3.93 0 00-1.006.635c-1.375 1.244-5.265 2.117-7.964 1.773-1.878-.238-3.254-1.455-3.254-2.884 0-.608.132-1.032.397-1.111.212-.106.397-.291.397-.476 0-.16.608-.768 1.376-1.35 1.72-1.323 3.915-3.466 3.915-3.836 0-.133.186-.265.397-.265.212 0 .397-.238.397-.503 0-.29.133-.608.265-.687.159-.08.264-.662.264-1.297 0-1.508-1.005-2.275-3.201-2.46-1.508-.16-3.149.238-3.149.74 0 .133-.158.238-.344.238-.37 0-1.508 1.376-1.508 1.826 0 .159-.29.476-.661.714-.37.239-.662.609-.662.794 0 .212-.105.37-.264.37-.132 0-.265.133-.265.292 0 .317-2.09 3.36-2.778 4.048-.212.211-.397.502-.397.635 0 .132-.397.582-.846 1.032-.477.423-1.218 1.217-1.667 1.746-.424.555-.9.979-1.006.979-.106 0-.476.29-.82.661-.344.37-.714.662-.82.662-.106 0-.503.211-.873.502-1.64 1.138-3.308 1.879-5.133 2.276-2.355.529-7.25.714-9.155.37zM102.711 73.153c-.264-.317-.211-.45.238-.688.715-.37 1.64-.079 1.535.477-.106.582-1.35.714-1.773.211zM96.07 71.804c-.846-1.005 1.35-1.64 2.62-.767l.635.45-.635.343c-.847.477-2.223.45-2.62-.026zM89.323 70.957c-1.64-.423-2.275-1.825-1.11-2.566 1.137-.714 2.01-.74 3.253-.106 1.482.74 1.482 1.402-.026 2.249-1.085.609-1.217.635-2.117.423zM79.93 67.306c-.37-.212-1.005-.53-1.455-.714-.423-.159-1.56-.715-2.513-1.217-.953-.503-2.328-1.217-3.043-1.614-1.614-.82-5.133-3.466-6.403-4.763-.979-1.005-2.249-2.751-2.54-3.519-.08-.264-.317-.476-.476-.476-.185 0-.238-.238-.132-.661.106-.37.053-.662-.106-.662-.37 0-.318-4.683.08-5.82.184-.503.396-1.033.502-1.191.08-.133.45-.794.794-1.456 1.164-2.116 1.693-3.016 2.804-4.603l1.112-1.561v-1.456c0-.979-.186-1.825-.609-2.672-.979-1.931-1.35-2.513-1.693-2.752-.186-.105-.344-.317-.344-.476 0-.132-.37-1.058-.847-2.037-1.111-2.381-1.19-5-.185-7.197.37-.794.82-1.825 1.005-2.275.185-.45.609-.98.98-1.164.343-.212.634-.503.634-.715 0-.185.106-.344.265-.344.132 0 .423-.344.661-.793.238-.424.556-.794.741-.794.159 0 1.217-.609 2.302-1.35 1.085-.714 2.275-1.402 2.646-1.481.608-.133 1.164-.37 3.942-1.561.503-.238 1.402-.503 1.984-.635 7.753-1.72 9.499-2.064 12.065-2.382 1.244-.158 3.043-.396 3.996-.529 3.545-.529 6.27-.608 7.09-.264 1.932.793.477 1.35-4.47 1.746-4.684.37-8.864.82-10.584 1.164-3.07.609-6.827 1.588-8.07 2.117-.291.132-1.217.423-2.037.635-2.196.608-6.297 3.043-7.726 4.55-2.593 2.805-3.942 6.933-3.096 9.579.424 1.349.926 2.434 1.138 2.434.132 0 .212.185.212.397 0 .423.926 2.17 1.481 2.804.212.212.37.556.37.715 0 .158.239.687.53 1.164.555.926.714 2.963.264 3.254-.132.08-.264.37-.264.662 0 .264-.185.555-.424.635-.238.079-.37.317-.29.502.079.185-.16.609-.503.953-.344.344-.635.82-.635 1.058 0 .265-.265.74-.582 1.085-.344.37-.582.74-.53.873.027.106-.132.265-.343.344-.212.106-.397.37-.397.609 0 .238-.106.555-.238.687-.583.583-1.112 3.493-1.059 5.9.053 1.324.159 2.435.291 2.435.106 0 .212.185.212.423 0 1.244 3.89 5.08 7.276 7.17 2.91 1.773 6.773 3.784 7.302 3.784.239 0 .715.238 1.059.503l.635.529-.53.397c-.66.502-1.402.529-2.248.026z"/>
    <path d="M109.696 65.56c-3.836-.741-5.318-1.085-5.688-1.27-.238-.132-.82-.318-1.323-.423-.503-.106-1.032-.265-1.19-.37-.133-.08-.795-.292-1.456-.424-.926-.212-1.19-.397-1.19-.794 0-.423.211-.556 1.11-.609.636-.052 1.509.08 1.985.292 2.064.926 4.789 1.508 9.472 2.063 3.307.37 8.255-.158 10.107-1.111.265-.132.582-.238.741-.238.45 0 3.466-2.328 4.842-3.784.714-.74 1.534-1.878 1.825-2.487.265-.608.794-1.35 1.165-1.64.37-.291.608-.635.529-.767-.08-.106.159-.53.529-.926.344-.37.635-.794.635-.9 0-.318 2.884-2.99 3.545-3.28.291-.133 1.059-.53 1.694-.874.608-.37 1.508-.74 1.984-.82.45-.106.98-.291 1.111-.397.16-.132 1.032-.291 1.985-.37.952-.08 3.095-.265 4.762-.424 3.096-.29 3.572-.264 8.467.37 2.963.397 3.863.688 5.186 1.667.45.344.979.609 1.19.609.212 0 .582.212.794.476.238.291.662.662.926.873.582.424 1.958 2.223 1.958 2.54 0 .106.185.556.397.953.53 1.032.608 5.45.106 5.794-.476.291-1.826.053-2.302-.423-.265-.265-.291-.476-.027-1.058.265-.556.265-.9.027-1.588-.185-.476-.318-1.27-.318-1.8 0-.528-.185-1.084-.396-1.27-.212-.184-.397-.502-.397-.687 0-.212-.106-.37-.265-.37-.132 0-.265-.16-.265-.37 0-.556-1.56-1.959-2.883-2.567-3.493-1.588-4.102-1.694-9.949-1.667l-5.291.026-1.853.53c-2.222.66-4.365 1.428-4.868 1.799-.767.529-3.466 3.44-3.466 3.73 0 .159-.159.45-.37.609-.212.185-.609.82-.9 1.429-.291.608-.952 1.587-1.482 2.143-.529.555-1.031 1.296-1.11 1.614-.08.317-.45.767-.848.979a8.688 8.688 0 00-1.402 1.084c-.82.741-3.307 2.302-3.704 2.302-.132 0-.609.185-1.005.397-.424.212-1.694.635-2.831.953-2.408.635-8.097.9-10.293.476zM45.27 64.528c0-.132.185-.265.397-.265.212 0 .397.133.397.265 0 .159-.185.265-.397.265-.212 0-.397-.106-.397-.265zM161.422 64.607c-.211-.079-.608-.37-.846-.608l-.45-.476.503-.45c.767-.688 2.672-.82 3.545-.265.37.265.688.609.688.794 0 .847-2.17 1.482-3.44 1.005zM47.07 62.835c-.61-.45-.345-.688.846-.688 1.164 0 1.429.211.926.688-.45.45-1.19.45-1.773 0zM48.71 60.162c-.424-.502-.212-1.058.661-1.614l.688-.45 1.032.318c1.27.37 1.773 1.111 1.164 1.72-.555.556-3.095.582-3.545.026zM92.948 58.813c-.555-.238-.08-.635.767-.635.53 0 .768.106.715.344-.132.344-.926.503-1.482.291zM88.212 57.913c-.344-.132-.608-.344-.608-.476 0-.9 2.275-1.19 3.016-.344l.45.503-.847.29c-.979.345-1.217.345-2.01.027zM1.138 56.564l.08-.9 1.587-.37c.873-.185 2.725-.767 4.1-1.27 1.376-.503 3.017-1.058 3.652-1.217.608-.159 1.111-.37 1.111-.503 0-.106.318-.211.741-.211.397 0 1.773-.609 3.07-1.323 1.296-.741 2.407-1.323 2.46-1.323.053 0 .29-.185.502-.397.212-.212.609-.53.847-.715.503-.396 1.905-2.38 1.905-2.725 0-.132.159-.423.344-.635.953-1.111 1.27-4.71.662-7.09-.186-.715-.397-1.323-.477-1.403-.211-.212-.714-1.085-1.243-2.09-.238-.503-.768-1.085-1.19-1.323-.398-.238-.742-.503-.742-.609 0-.238-1.455-.9-2.407-1.11-1.614-.345-3.943 1.243-3.943 2.698 0 .291-.158.661-.37.82-.212.159-.423.635-.503 1.032a62.5 62.5 0 01-.423 1.905c-.159.662-.265 1.8-.291 2.567 0 1.56-.45 2.196-1.535 2.196-1.296 0-1.429-.291-1.296-2.408.106-1.905.476-3.81.952-4.868.133-.292.318-.847.397-1.27.106-.397.847-1.43 1.693-2.276l1.509-1.56L13.864 30c1.826-.238 3.995-.027 5.239.503 1.746.714 4.736 3.942 4.736 5.08 0 .211.132.37.265.37.158 0 .264.159.264.344 0 .212.212.767.45 1.27.952 1.905.423 6.694-.926 8.255-.212.238-.318.45-.185.45.45 0-2.646 3.677-3.122 3.704-.212 0-2.355 1.35-2.567 1.614-.317.397-7.884 3.228-9.525 3.545-.503.106-1.058.291-1.19.424-.265.185-4.287 1.455-5.636 1.746l-.609.159zM51.276 56.485l-.476-.37.53-1.086c.317-.582.555-1.243.555-1.455 0-.211.37-1.005.794-1.746.45-.74.793-1.508.793-1.693 0-.186.291-.9.635-1.64.344-.715.715-1.959.82-2.752.106-.794.37-1.773.556-2.17.212-.397.37-1.138.37-1.667 0-.556.186-1.376.397-1.826.344-.714.397-1.746.318-5.873-.053-2.752-.238-5.583-.397-6.324-.37-1.852-1.931-6.218-2.196-6.218-.132 0-.238-.211-.238-.476 0-.264-.423-.979-.926-1.56-.503-.61-.926-1.165-.926-1.244 0-.291-1.958-2.011-2.302-2.011-.397 0-.476 2.646-.106 3.386.423.794.714 4.18.423 4.71-.687 1.27-2.17 1.614-4.18.953-1.058-.344-1.746-.847-3.096-2.223-2.01-2.09-2.645-2.805-2.645-2.99 0-.08-.424-.502-.926-.952-.503-.45-.98-1.059-1.085-1.376-.106-.318-.265-.635-.37-.714-1.033-.715-2.117-1.747-2.117-2.011 0-.185-.45-.609-.98-.926a19.872 19.872 0 01-2.169-1.614c-.661-.582-1.614-1.217-2.117-1.455a55.245 55.245 0 01-2.804-1.535c-1.006-.582-2.434-1.297-3.175-1.561-.715-.291-1.905-.767-2.646-1.085a77.437 77.437 0 00-2.037-.873c-.926-.37-.926-.767-.053-1.164.529-.238.794-.238 1.19 0 .265.185.768.317 1.085.317.344 0 1.006.238 1.482.53.476.29 1.085.529 1.35.529.264 0 .872.264 1.375.608.503.318 1.402.767 2.037.953.609.211 1.112.476 1.112.608 0 .106.158.212.344.212.211 0 1.031.476 1.852 1.058.793.582 1.56 1.059 1.64 1.059.503 0 3.466 2.354 5.027 3.968.45.45 1.244 1.297 1.8 1.852.529.556.978 1.059.978 1.112 0 .079.53.714 1.19 1.428.662.715 1.192 1.376 1.192 1.456 0 .45 3.254 3.413 3.73 3.413h.503l-.159-1.112c-.106-.635-.264-1.243-.37-1.402-.318-.397-.609-4.18-.424-5.08.212-.9 1.509-1.667 2.831-1.667 1.006 0 4.207 1.667 4.207 2.17 0 .08.397.556.9 1.085 1.005 1.084 1.931 2.513 2.963 4.683.688 1.481.768 1.72 1.059 3.519.079.529.264 1.058.396 1.137.133.08.239.662.239 1.297 0 .635.132 1.243.264 1.323.159.106.265 1.825.265 4.313 0 3.201-.106 4.339-.397 4.92-.238.424-.344.98-.265 1.218.08.264-.026.979-.264 1.614-.212.635-.397 1.534-.397 2.01 0 .45-.106.927-.265 1.006-.132.08-.264.556-.264 1.058 0 .503-.106.98-.265 1.059-.132.08-.265.37-.265.661 0 .265-.29 1.059-.635 1.773-.343.688-.9 1.984-1.217 2.857-.317.874-.688 1.773-.82 1.985a7.96 7.96 0 00-.476.952c-.609 1.35-1.773 1.8-2.752 1.059zM81.81 55.69l-.583-.634.714-.556c1.218-.952 3.546-.582 3.546.582 0 .9-.503 1.244-1.852 1.244-.953 0-1.376-.132-1.826-.635z"/>
    <path d="M110.173 55.955c-.635-.74-.344-.873 2.116-1.031 3.413-.239 5.345-.9 8.784-3.043 1.879-1.19 4.207-3.837 5.477-6.191 1.667-3.175 2.91-4.26 5.424-4.816 1.138-.238 2.54-.555 3.122-.688.582-.158 1.958-.397 3.043-.555 3.81-.556 5.08-.768 5.345-.926.158-.106 1.058-.265 2.037-.37.952-.107 2.302-.45 2.99-.768.688-.291 1.349-.556 1.481-.556.133 0 .582-.29 1.006-.661.423-.37.873-.662 1.032-.662.423 0 2.01-1.931 1.878-2.275-.08-.185.053-.476.265-.635.423-.37.529-2.778.106-3.043-.16-.106-.424-.555-.635-1.005-.265-.662-3.731-4.286-7.832-8.202-1.376-1.323-2.91-3.784-2.91-4.683 0-.662.555-1.059 1.455-1.059 1.19 0 1.508.344 1.746 1.826l.212 1.376 1.587 1.614c.9.873 1.614 1.72 1.614 1.825 0 .133.159.238.37.238.212 0 .9.609 1.535 1.35.635.74 1.402 1.455 1.72 1.587.317.106.873.662 1.243 1.217.37.556.953 1.297 1.323 1.64 1.852 1.668 2.25 4.949.82 6.51-.37.37-.66.74-.66.846 0 .08-.398.503-.848.98-1.217 1.19-3.492 2.513-5.08 2.989-3.44.979-4.392 1.217-6.244 1.535-2.09.37-4.604.74-8.017 1.217-3.386.45-4.789 1.35-6.006 3.81-.37.714-.979 1.64-1.376 2.037-.423.397-.74.847-.74 1.005a.265.265 0 01-.265.265c-.132 0-.265.159-.265.344 0 .635-4.974 4.948-5.715 4.948-.079 0-.476.211-.846.502a5.456 5.456 0 01-1.508.662c-4.974 1.19-8.229 1.508-8.784.846zM96.203 53.68c-1.165-.265-2.567-.661-3.149-.9-.556-.238-1.217-.423-1.482-.423-.238 0-.767-.29-1.164-.661-.397-.37-.82-.662-.926-.662-.476 0-2.46-2.249-2.963-3.334-.265-.635-.503-1.56-.503-2.063 0-1.27 1.482-3.969 2.646-4.869a22.05 22.05 0 001.587-1.402c.37-.397 1.138-.9 1.72-1.138.556-.238 1.111-.529 1.19-.661.08-.106.742-.582 1.456-1.085 2.46-1.64 2.858-2.778 1.429-4.048-.45-.397-.98-.714-1.19-.714-.213 0-.583-.106-.848-.238-.661-.344-3.175-1.032-4.55-1.244-1.403-.238-3.784-1.244-4.79-2.037-.396-.318-.952-.768-1.243-.98-.767-.608-1.111-1.428-1.111-2.724 0-1.509.45-2.382 2.064-3.89 1.27-1.19 1.667-1.376 5.873-2.672 1.773-.556 10.002-.503 11.854.053 1.667.502 2.143.9 1.693 1.35-.212.21-1.058.21-3.466-.054-1.905-.211-4.524-.29-6.509-.211l-3.333.158-1.403.688c-.767.37-1.508.688-1.667.688-.582 0-1.905 1.905-2.063 3.016-.265 1.667.264 3.281 1.137 3.625.397.159 1.323.556 2.038.9 1.375.608 3.095 1.137 4.577 1.376.476.079.926.238 1.005.37.08.132.477.238.9.238 1.296 0 4.18 1.72 4.392 2.646 0 .08.106.344.212.582.397.9-.265 1.905-2.117 3.334-1.005.74-1.958 1.508-2.143 1.64-.185.159-.476.265-.662.265-.211 0-.9.476-1.534 1.032-.662.555-1.535 1.323-1.932 1.64-1.508 1.27-2.143 2.593-2.196 4.577l-.053 1.826.635.688c.344.37.635.767.635.873 0 .132.16.212.37.212.212 0 .424.158.504.344.079.185 1.005.767 2.063 1.296l1.958.926 2.91.265c3.07.29 4.049.264 6.642-.133 1.64-.264 4.392-1.375 5.133-2.063.9-.82 2.063-1.694 2.328-1.694.132 0 .344-.423.423-.926.106-.502.265-.926.397-.926.556 0 2.064-4.603 1.667-5.106-.132-.185-.318-.767-.423-1.323-.106-.556-.424-1.402-.688-1.852a17.246 17.246 0 01-.794-1.455c-.132-.318-.74-1.059-1.323-1.64-.582-.556-1.058-1.165-1.058-1.324 0-.132-.106-.264-.238-.264-.344 0-3.466-3.043-3.466-3.387 0-.159-.239-.37-.53-.45-.29-.08-.529-.264-.529-.397 0-.132-.211-.45-.502-.714-.265-.265-.688-1.164-.953-1.984l-.45-1.508.609-.98c.767-1.27 1.984-2.38 3.016-2.751.45-.185 1.111-.476 1.508-.688 1.164-.635 4.816-.767 6.959-.265 2.222.53 5.82 1.932 6.244 2.435.159.211.397.37.529.37.37 0 3.519 1.931 4.075 2.514.29.29 1.084.9 1.772 1.322 1.35.847 1.614 1.218 1.376 1.853-.317.82-1.693.423-3.572-1.059a85.623 85.623 0 01-1.56-1.19c-.477-.37-.98-.794-1.165-.953-.159-.132-.979-.608-1.8-1.005-.82-.397-1.64-.9-1.825-1.112-.158-.211-.45-.37-.635-.37s-1.032-.318-1.878-.714l-1.561-.715-2.91-.026h-2.911l-1.085.74c-2.143 1.456-2.805 3.334-1.693 4.763.29.37.529.767.529.926 0 .238 1.217 1.561 2.275 2.46.291.239.688.662.926.927.238.264.82.873 1.323 1.323 1.244 1.137 3.228 3.466 3.546 4.18.158.344.423.794.635 1.058.185.239.29.424.185.424-.106 0 .026.37.264.82.556 1.085.556 4.18.027 5.186-.238.397-.661 1.296-.953 2.01-.317.689-.687 1.244-.82 1.244-.158 0-.264.159-.264.37 0 .212-.45.741-.98 1.218-4.497 3.968-11.35 5.609-17.673 4.233z"/>
    <path d="M77.496 52.119c-.317-.423-.82-1.085-1.058-1.508-.264-.423-.582-.953-.714-1.164-1.35-2.143-1.455-4.392-.265-6.165.45-.688 1.138-1.535 1.535-1.879.37-.344 1.164-1.084 1.746-1.614.582-.529 1.455-1.137 1.905-1.349 1.005-.423 1.8-1.508 1.561-2.09-.08-.212-.423-.503-.767-.635-3.043-1.164-5.61-2.831-6.853-4.472l-.74-.952v-1.905c0-3.043 1.058-4.763 2.83-4.55.556.052.768.237.82.713.053.344-.026.741-.185.9-.158.159-.29.609-.29 1.005 0 .397-.107.82-.265.9-.424.265-.318 1.852.238 3.122.502 1.19 1.72 2.302 2.513 2.302.238 0 .424.132.424.265 0 .158.185.264.397.264.529 0 1.746.609 3.518 1.773 1.403.952 1.694 1.614 1.059 2.328-.185.212-.476.53-.662.715-.158.185-.74.635-1.243 1.005-.53.37-1.323.979-1.8 1.376-.45.397-1.058.794-1.322.9-.265.079-.477.264-.477.396 0 .133-.343.609-.793 1.032-.424.423-.794.953-.794 1.164 0 .212-.132.688-.291 1.059-.238.502-.238 1.032.053 2.249.185.9.45 1.614.555 1.614.106 0 .212.158.212.344 0 .158.291.582.635.9.9.872 1.535 2.275 1.138 2.513-.741.476-1.985.211-2.62-.556zM1.614 48.785c-.476-.582-.08-.926 1.085-.926 1.137 0 1.429.556.529 1.059-.714.37-1.217.344-1.614-.133zM173.858 45.557c-.662-.211-1.826-.688-2.593-1.032-.767-.343-1.561-.635-1.773-.635-.185 0-.45-.238-.53-.529-.078-.29-.264-.529-.37-.529-.343 0-2.143-1.773-2.143-2.09 0-.159-.105-.291-.264-.291-.132 0-.265-.132-.265-.318 0-.158-.29-.661-.635-1.11-.714-.953-1.746-3.017-1.746-3.52 0-.185-.106-.555-.238-.82-.582-1.164-1.35-3.466-1.35-4.101 0-.238-.105-.45-.264-.45-.132 0-.318-.317-.397-.714-.291-1.297-1.217-4.419-1.482-4.895a2.664 2.664 0 01-.238-1.005c0-.291-.106-.53-.264-.53-.133 0-.265-.132-.265-.29 0-.689-2.487-5.769-3.175-6.536-.291-.317-.53-.661-.53-.82 0-.265-1.93-1.879-2.248-1.879-.106 0-.503-.211-.873-.476-.397-.264-1.429-.767-2.302-1.085-.873-.344-1.826-.714-2.117-.82-.29-.132-1.058-.29-1.72-.37a72.856 72.856 0 01-2.645-.397c-4.71-.926-11.166-1.217-18.918-.847l-6.324.291-.396-.397c-1.138-1.137 1.481-1.428 12.33-1.455 4.788 0 9.392.132 10.45.291 3.598.53 8.07 1.482 8.546 1.8.159.105.926.343 1.72.529.794.185 1.746.529 2.117.767.37.238 1.137.661 1.72.952 1.349.688 3.81 3.149 4.497 4.525.291.582.794 1.508 1.138 2.037.318.556.582 1.164.582 1.402 0 .212.132.397.265.397.158 0 .264.37.264.794 0 .45.133.794.265.794.159 0 .264.185.264.397 0 .211.186.82.424 1.375.767 1.747 1.164 2.884 1.693 4.842.185.662.423 1.455.556 1.8.132.343.238.82.238 1.084 0 .238.29 1.085.661 1.826.37.767.662 1.56.662 1.773 0 .211.106.396.211.396.106 0 .37.53.556 1.191.185.661.45 1.19.582 1.19.132 0 .238.239.238.503 0 .265.186.556.397.662.212.08.397.29.397.476 0 .503 2.91 3.202 4.022 3.73.529.239 1.243.45 1.614.45.37 0 .767.133.846.265.08.159.503.265.953.265h.767V46.007l-.847-.026c-.476 0-1.402-.186-2.063-.424zM4.921 45.213c.08-.132.318-.264.53-.264.211 0 .45.132.529.264.105.16-.133.265-.53.265-.396 0-.635-.106-.529-.265zM46.91 37.117c-.872-.608-.74-1.323.265-1.534 2.011-.397 3.493.555 2.329 1.481-.715.582-1.8.609-2.593.053z"/>
    <path d="M130.334 35.82c-2.805-.396-2.46-.29-6.588-2.09-.847-.37-1.72-.687-1.905-.687-.212 0-.37-.106-.37-.265 0-.132-.186-.265-.398-.265-.211 0-.397-.105-.397-.264 0-.132-.158-.265-.343-.265-.186 0-.953-.423-1.694-.926-.767-.503-1.455-.926-1.56-.926-.107 0-.768-.476-1.456-1.058-.688-.582-1.667-1.297-2.196-1.614-1.111-.662-1.27-1.482-.318-1.72 1.112-.265 1.535-.026 5.319 3.016.873.688 1.984 1.376 2.222 1.376.159 0 .873.423 1.588.926.687.503 1.428.926 1.587.926.185 0 .503.185.714.397.239.212.741.397 1.165.397.423 0 .82.106.9.238.21.318 2.936 1.164 5.132 1.614 1.323.265 1.984.265 3.175.027 2.01-.424 3.995-1.43 5.107-2.567l.873-.9.105-1.799c.08-1.402 0-1.905-.317-2.249-.238-.211-.423-.555-.423-.714 0-.423-.847-1.667-1.456-2.09-.29-.212-.9-.794-1.349-1.297-.45-.476-1.296-1.11-1.852-1.428-.582-.291-1.111-.662-1.19-.794-.186-.265-.98-.767-2.09-1.297-1.747-.82-3.414-1.508-4.366-1.825-2.832-.9-3.017-1.059-1.773-1.561 1.19-.503 3.572.211 7.593 2.249 1.667.846 3.916 2.328 4.34 2.857.211.238.502.423.661.423.714 0 4.366 4.075 4.577 5.107.08.397.265.794.37.873.318.185.292 2.937-.026 3.149-.132.079-.264.396-.264.661 0 .556-2.25 2.567-3.81 3.387-2.011 1.085-5.742 1.481-9.287.979zM46.99 33.043c-.08-.133-.08-.37 0-.53.212-.344 1.984-.344 2.514 0l.396.265-.396.265c-.53.344-2.302.344-2.514 0zM46.99 29.868c.08-.133.45-.265.794-.265.344 0 .714.132.794.265.105.158-.212.264-.794.264-.582 0-.9-.106-.794-.264zM119.75 15.712l-.793-.661.661-.53c.9-.714 2.62-.714 3.387 0 1.56 1.456-1.535 2.594-3.255 1.191zM41.99 15.554c-.397-.318-.847-.82-.98-1.138a23.046 23.046 0 00-.873-1.614c-.344-.582-.555-1.19-.502-1.376.079-.185 0-.344-.133-.344-.608 0-1.217-1.958-1.243-3.836 0-2.196.37-2.91 2.222-4.18l1.19-.82h2.673c2.064 0 2.858.105 3.572.475 1.217.662 3.44 2.937 4.948 5.133.688.98 1.296 1.826 1.402 1.905.08.08.503.582.926 1.138 1.402 1.878 3.202 2.355 5.16 1.323.37-.185.767-.344.873-.344.105 0 .344-.106.529-.265 1.243-1.005 5.556-3.598 7.858-4.736 3.89-1.878 9.234-2.884 15.346-2.91 2.751 0 6.059.45 6.085.847v.476c0 .211-1.138.264-4.154.106-5.98-.265-12.091.688-14.764 2.301-.423.265-.952.477-1.164.477-.397 0-2.46 1.19-6.244 3.677-2.513 1.614-3.096 1.853-5.927 2.329-1.799.29-3.466-.344-5.265-1.985-.9-.82-1.64-1.614-1.64-1.72 0-.29-1.085-1.799-1.746-2.434-.318-.29-.768-.979-1.032-1.508-.238-.555-.556-1.005-.688-1.005-.133 0-.476-.238-.768-.53-2.037-2.037-4.365-2.063-6.058-.105-.503.582-.583.9-.477 2.064.159 1.508.397 2.672.715 3.466.767 1.825 1.402 3.042 1.614 3.042.132 0 .29.291.396.662.08.37.265.661.397.661.45 0 .238.768-.264 1.059-.768.397-1.19.317-1.985-.291zM115.517 14.257c-.212-.317.45-.608 1.085-.476a.77.77 0 01.582.423c.132.397-1.429.45-1.667.053z"/>
    <path d="M58.34 7.907c-1.031-.423-2.01-1.508-1.825-2.064.212-.688 1.667-1.375 2.937-1.375 1.429 0 3.016.767 3.016 1.428-.026 1.535-2.434 2.7-4.127 2.011zM61.33 3.198l-.45-.503.477-.423c1.058-.953 3.704-.265 3.069.793-.423.715-2.487.794-3.096.133zM68.024 1.584l-.37-.265.423-.159c.556-.211 1.27-.08 1.35.265.08.37-.9.45-1.403.159z"/>
  </svg>