<svg xmlns="http://www.w3.org/2000/svg" width="775.892" height="648.854" viewBox="0 0 205.288 171.676">
  <g fill-rule="evenodd">
    <path fill="#00b0aa" d="M205.284 10.35c-2.576 11.2-2.13 8.465-5.347 10.747-6.2 4.397-6.785 1.993-11.828 4.619 8.609.65 10.402 1.335 14.03 7.346-1.508 1.061-1.13 1.03-3.592-.471-2.955 8.056-9.997 1.824-16.564 5.074-2.05 1.014-3.907 1.464-5.173 2.248-1.986 6.73 1.703 4.883 1.307 10.843-.467 7.044.734 6.286 1.43 12.134.485 4.073-1.763 4.916.06 11.087 1.445 4.907 2.649 5.968 2.528 11.634h-1.01c-.266 8.984-.961 4.141-3.513 9.54-3.827 8.095-7.986 8.162-12.527 17.809-5.683 12.074-5.127 7.44-6.555 7.46-1.496 2.556-.967 2.896-1.454 6.144-.496 3.311-3.496 5.341-3.531 8.185-.05 4.245 1.274 14.18 3.16 17.21 2.308 1.836 9.817-.57 10.834 6.078-2.04 2.403-6.098 2.799-9.125 2.772-1.458-.01-3.842-.488-5.155-.998-3.63-1.412-1.673.598-3.187-2.537.648 10 9.165.927 10.685 10.925-4.201 4.449-12.95 3.954-18.31 1.592-12.68.113-9.547-2.63-9.797-15.362 1.084-2.118-.96-13.893-1.387-19.28l-4.74 5.944c-.107-.02-.198-.33-.218-.24-.02.088-.196-.22-.227-.244-2.053-1.645-9.631.088-12.316.746.406 6.787 1.806-2.06 2.017 11.014 2.957 2.732 5.402 1.597 3.533 7.075-3.777 1.092-5.15-.191-9.417-.326 8.254 4.448 6.166 9.274.78 8.987-11.293-.602-39.35 1.01-44.135 2.526-10.655 3.375-28.686-3.757-38.74-4.484-16.39-1.183-16.945-7.475-20.494-8.713-1.81-.63-.228.933-2.657-1.7-2.143-2.324-.334.02-2.026-.283L.19 147.666c-1.151-6.706 3.221-12.322 5.321-16.755 5.106 5.95 20.073.534 33.856 5.31 8.391 2.909 4.563 18.405 11.473 11.642 2.97-2.908 3.764-6.874 5.99-10.36 5.23-8.187 3.487-14.755 13.225-23.878 1.946-1.823 3.097-2.54 4.88-4.563 1.777-2.014 2.357-3.418 4.245-5.344-2.636-.848-.227 1.014-2.83-1.11 5.266-4.326 3.213-4.967 6.166-7.44 1.501-1.258 2.344-1.713 4.442-3.444 3.375-2.784 6.836-4.614 7.659-6.728 1.524-3.916 6.78-4.96 11.336-10.529 2.484-3.036 14.2-13.61 15.223-16.132 1.979-4.883 8.939-8.938 12.92-16.789.62-1.221 1.88-2.651 2.76-4.285 2.179-4.05.635-3.67.641-4.586l4.887-9.646c2.919-5.914-1.037-10.685 11.752-20.185C157.394.424 163.051.834 167.2.277c15.793-2.12 8.701 8.623 23.084 8.573 6.738-.02 8.963.746 15.004 1.5z"/>
    <path fill="#fff" d="M147.346 61.645c-3.246 0-8.43-7.65-11.255-8.788-2.238-.903-2.658 1.703-2.658 3.729 0 1.552 1.324 5.094 1.774 6.868.62 2.442 1.178 6.444 2.304 8.447 1.065 1.895.336 1.562.618 3.598.245 1.77.244 3.946-1.058 5.381-.715.789-1.452 1.448-2.214 2.213-1.586 1.59-2.9 2.487-4.34 4.302-1.065 1.344-3.658 2.617-5.232 3.41-1.77.892-4.167 1.908-6.369 2.274-2.143.356-4.667 1.449-6.65 2.203-9.683 3.683-14.213 6.373-20.714 14.066-4.965 5.876-10.393 16.008-10.393 24.386l.662 9.666c.404 3.613-.151 12.866-1.102 15.61-.541 1.56-2.006 2.503-3.492 3.254-4.527 2.287-6.64 1.613-12.721 1.613-6.102 0-11.367-.258-15.839-1.868-3.798-1.367-7.77-4.863-7.77-9.936 0-18.316-.794-5.143-1.838-7.063-1.997-3.673-4.907-6.257-4.907 4.955 0 5.006.289 8.203 3.368 12.23 7.086 9.269 22.438 9.477 34.195 9.481h1.222c7.987 0 14.94-2.319 14.966-2.319 5.069 0 1.765.538 8.432-.21 1.375-.155 2.67-.298 4.125-.518 1.89-.287 2.3.307 4.096.307 4.967 0 10.566-.004 15.096-1.134 5.995-1.496 4.71-5.33 2.188-6.665.378-.563 1.12-1.339 1.623-1.96 4.736-5.838 5.122-12.97 5.122-20.805l.757 1.984c.235.835.346 1.372.551 2.189.34 1.35.734 3.318.953 4.739.638 4.162.686 5.09 2.035 9.136.497 1.491 2.044 5.959 3.109 7.22l.303.33c3.067 3.045 14.425 4.353 14.425-.725 0-2.05-3.276-3.698-5.179-4.728l-1.001-.473c-1.951-1.064-1.84-7.596-1.828-9.766.01-1.95-.424-3.402-.123-5.39.41-2.707-.069-6.356.04-8.143.019-.3 5.484-9.529 7.237-11.345 3.688-3.818 8.325-10.313 9.02-15.431.232-1.708.174-3.9-.069-5.52-.271-1.796-.088-4.462-.088-6.445l1.501-4.611c1.013-3.415 1.232-7.292 2.21-10.226.555-1.661 1.082-3.11 1.586-4.739.354-1.144.766-4.01 1.271-4.84 1.728-2.839.824-.713 1.596-4.73.307-1.6 1.852-6.48 2.164-10.466V53.93c-.198-1.913-.963-3.245-2.74-3.245-1.387 0-3.522 2.364-4.374 3.214l-6.483 7.01c-1.607 1.23-2.153-.172-4.622.214-1.03.161-2.638.523-3.492.523z"/>
  </g>
</svg>
